<?xml version="1.0" encoding="UTF-8"?><svg id="b" xmlns="http://www.w3.org/2000/svg" width="70.6mm" height="70.6mm" viewBox="0 0 200.13 200.13"><g id="c"><path d="M196.87,124.34c-2.35,.73-6.7,1.99-10.15,1.99-5.98,0-7.79-2.35-7.79-7.43v-18.25h19.75v-35.51h-19.75v-20.34h-30.8v20.34h-11.05c-9.96,0-16.12,3.44-22.46,31.34h-2.49v-29.59h-.05v-.85h-28.99v31.28h-2.49c-4.61-20.29-9.3-26.6-15.22-29.32-.76-.33-1.56-.63-2.38-.91-5.22-1.8-11.56-2.74-19.17-2.74-26.09,0-37.87,11.96-40.4,26.99l28.81,6.35c1.09-6.35,4.53-9.24,10.33-9.24,1.75,0,3.25,.28,4.51,.81,3.43,1.43,5.09,4.7,5.09,9.34v5.98h-19.21C9.06,104.58,0,114.91,0,130.31c0,17.39,11.23,25,24.46,25,14.31,0,22.47-9.06,26.63-22.47h2.72v20.66h58.32s1.76,0,1.76,0v-36.72c0-12.68,3.08-16.12,19.57-16.12h14.68v23.87c0,16.67,8.7,30.8,30.26,30.8,10.51,0,14.68-1.27,21.74-3.44l-3.26-27.54Zm-144.7-4.91c0,7.43-5.07,12.86-13.23,12.86-7.43,0-9.96-3.26-9.96-7.97s4.53-8.15,10.51-8.15h12.68v3.26Z" fill="#1f1737"/><rect width="200.13" height="200.13" fill="none"/></g></svg>